<svg version="1.1" id="Layer_1" xmlns="http://www.w3.org/2000/svg" xmlns:xlink="http://www.w3.org/1999/xlink" x="0px" y="0px" width="100%" viewBox="0 0 500 500" enable-background="new 0 0 500 500" xml:space="preserve">

<path fill="#D2262D" opacity="1.000000" stroke="none" d="
M182.226685,77.214081 
	C212.807480,65.755966 243.786346,61.809235 275.968506,65.949226 
	C319.375122,71.533173 356.283203,89.962204 386.623230,121.121765 
	C399.841370,134.696976 410.388306,150.472610 418.836212,167.634811 
	C427.305756,184.841003 432.525085,202.968140 435.290741,221.775406 
	C438.208771,241.618896 437.702118,261.428284 434.162445,281.315582 
	C429.352570,308.339508 419.398682,333.110474 403.791534,355.527588 
	C378.306519,392.132599 343.816010,416.093048 300.848633,428.172180 
	C277.712585,434.676239 254.172394,435.249969 230.628799,433.166718 
	C195.822495,430.086945 164.532303,416.911011 136.932053,395.769409 
	C103.305199,370.011505 81.535744,335.943848 70.915398,295.060120 
	C65.644058,274.767731 64.041962,254.078568 65.900864,232.916428 
	C69.382622,193.279144 84.284889,158.728424 109.572800,128.447723 
	C121.894691,113.693008 136.400162,101.244370 153.076355,91.650566 
	C162.346542,86.317444 172.248611,82.082672 182.226685,77.214081 
M213.919907,182.905151 
	C213.919907,182.905151 213.607788,182.588654 214.074097,182.569153 
	C214.395981,182.263046 214.717880,181.956940 215.407059,181.198608 
	C215.587357,181.126450 215.767654,181.054306 216.659088,180.902786 
	C218.090866,179.899063 219.522659,178.895355 221.451385,177.401108 
	C236.990463,168.818634 253.477966,168.053772 270.314941,172.020538 
	C288.122498,176.215958 301.919556,186.272842 311.489227,202.291672 
	C324.687897,194.392853 337.622498,186.652054 350.612854,178.877899 
	C350.357544,178.222717 350.260223,177.749237 350.014099,177.373199 
	C331.911041,149.714005 307.209351,132.114410 274.103455,126.816048 
	C248.548920,122.726234 224.062576,125.695511 200.810776,137.021194 
	C169.443054,152.300034 149.438965,177.533630 139.192154,210.424545 
	C132.753860,231.090652 132.591949,252.324280 136.727951,273.598450 
	C141.156937,296.379608 150.607071,316.705627 167.483948,332.772522 
	C198.869003,362.651367 236.413605,372.233551 278.443237,363.507050 
	C308.263397,357.315582 331.143219,340.664368 346.590088,314.192474 
	C360.719849,289.977875 362.753601,263.238861 362.208496,235.586121 
	C361.249725,235.378601 360.290833,234.989410 359.332153,234.989838 
	C325.779175,235.004517 292.226196,235.055878 258.061127,235.435455 
	C257.413025,237.554031 256.261749,239.659424 256.205780,241.793518 
	C255.988068,250.098358 256.115448,258.412323 256.119110,266.722870 
	C256.122955,275.410919 256.577271,275.837616 265.521606,275.878235 
	C281.308441,275.949982 297.095184,276.039490 312.930542,276.866699 
	C312.755371,277.582245 312.580231,278.297791 311.874054,279.399139 
	C311.697540,280.470856 311.521027,281.542542 311.197510,283.310760 
	C308.059174,289.094940 305.785706,295.609100 301.629150,300.533844 
	C285.724365,319.377869 264.861694,325.020386 241.191925,320.637024 
	C221.748489,317.036316 206.737305,306.623627 196.935776,288.428223 
	C195.597687,285.955383 194.259598,283.482513 192.985550,281.021149 
	C192.985550,281.021149 192.952576,281.077240 193.000275,280.259094 
	C191.193329,274.178833 189.386383,268.098572 187.301285,261.381622 
	C187.294144,260.922241 187.287003,260.462891 187.635544,259.275146 
	C187.734406,251.540039 187.783829,243.803848 187.953918,236.070297 
	C188.033478,232.453629 188.346283,228.842056 188.483124,225.080582 
	C188.483124,225.080582 188.620499,224.991974 189.064499,224.751114 
	C189.104767,224.157410 189.145050,223.563690 189.133743,222.295715 
	C189.258774,221.868286 189.383804,221.440857 190.055450,220.684906 
	C190.197968,219.674210 190.340485,218.663498 190.955750,217.914993 
	C190.801132,217.822083 190.646500,217.729187 191.120361,217.320892 
	C193.108871,212.303879 195.097366,207.286880 197.168198,201.588303 
	C197.307571,201.406799 197.446945,201.225311 198.067749,200.807785 
	C198.300232,200.339493 198.532700,199.871201 198.768814,199.164871 
	C198.768814,199.164871 198.982483,199.059937 199.587051,198.819794 
	C199.927765,198.088959 200.268478,197.358124 200.812592,196.826050 
	C200.812592,196.826050 200.580215,196.662064 201.255035,196.443115 
	C201.737808,195.454468 202.220581,194.465805 202.785492,193.169418 
	C202.785492,193.169418 203.060745,193.009186 203.649826,192.836121 
	C204.076096,192.185394 204.502365,191.534683 204.957214,190.950592 
	C204.957214,190.950592 204.885834,190.937927 205.502106,190.775009 
	C205.959488,190.122696 206.416870,189.470398 206.895325,188.891327 
	C206.895325,188.891327 206.820160,188.878845 207.481979,188.752426 
	C208.982056,187.153152 210.482132,185.553879 211.987213,184.007629 
	C211.987213,184.007629 211.945953,183.973969 212.536865,183.883987 
	C212.900589,183.445953 213.264313,183.007904 213.919907,182.905151 
z" data-index="1" style="opacity: 1;"></path>
<path fill="#FEFDFC" opacity="1.000000" stroke="none" d="
M189.508835,221.013428 
	C189.383804,221.440857 189.258774,221.868286 188.985733,222.945206 
	C188.765320,224.060455 188.692902,224.526215 188.620499,224.991974 
	C188.620499,224.991974 188.483124,225.080582 188.280457,225.494186 
	C185.965439,237.229828 184.746841,248.572769 187.279877,260.003510 
	C187.287003,260.462891 187.294144,260.922241 187.356750,262.076538 
	C189.259018,268.873383 191.105804,274.975311 192.952576,281.077240 
	C192.952576,281.077240 192.985550,281.021149 192.968933,281.384949 
	C194.276642,284.226440 195.600952,286.704132 196.925278,289.181854 
	C206.737305,306.623627 221.748489,317.036316 241.191925,320.637024 
	C264.861694,325.020386 285.724365,319.377869 301.629150,300.533844 
	C305.785706,295.609100 308.059174,289.094940 311.523071,282.746094 
	C312.034119,281.125427 312.219574,280.069366 312.405060,279.013336 
	C312.580231,278.297791 312.755371,277.582245 312.982666,276.062286 
	C311.384613,274.882324 309.736359,274.190277 308.084076,274.180664 
	C293.293945,274.094269 278.503113,274.128052 263.712494,274.126526 
	C261.957886,274.126343 260.203308,274.126526 258.109222,274.126526 
	C258.109222,261.464783 258.096680,249.529770 258.149719,237.595047 
	C258.152130,237.052917 258.746429,236.513412 259.526001,236.011063 
	C294.262665,236.064774 328.538361,236.080093 362.814056,236.095428 
	C362.753601,263.238861 360.719849,289.977875 346.590088,314.192474 
	C331.143219,340.664368 308.263397,357.315582 278.443237,363.507050 
	C236.413605,372.233551 198.869003,362.651367 167.483948,332.772522 
	C150.607071,316.705627 141.156937,296.379608 136.727951,273.598450 
	C132.591949,252.324280 132.753860,231.090652 139.192154,210.424545 
	C149.438965,177.533630 169.443054,152.300034 200.810776,137.021194 
	C224.062576,125.695511 248.548920,122.726234 274.103455,126.816048 
	C307.209351,132.114410 331.911041,149.714005 350.014099,177.373199 
	C350.260223,177.749237 350.357544,178.222717 350.612854,178.877899 
	C337.622498,186.652054 324.687897,194.392853 311.489227,202.291672 
	C301.919556,186.272842 288.122498,176.215958 270.314941,172.020538 
	C253.477966,168.053772 236.990463,168.818634 220.861832,177.656525 
	C218.830841,178.935364 217.389404,179.958755 215.947968,180.982147 
	C215.767654,181.054306 215.587357,181.126450 214.993927,181.444305 
	C214.256454,181.989532 213.932114,182.289093 213.607788,182.588654 
	C213.607788,182.588654 213.919907,182.905151 213.506638,182.829590 
	C212.710907,183.160690 212.328430,183.567337 211.945953,183.973969 
	C211.945953,183.973969 211.987213,184.007629 211.655975,184.043579 
	C209.823212,185.679306 208.321671,187.279068 206.820160,188.878845 
	C206.820160,188.878845 206.895325,188.891327 206.588470,188.947235 
	C205.816345,189.648087 205.351089,190.292999 204.885834,190.937927 
	C204.885834,190.937927 204.957214,190.950592 204.661453,191.022491 
	C203.930710,191.732651 203.495728,192.370926 203.060745,193.009186 
	C203.060745,193.009186 202.785492,193.169418 202.458679,193.485748 
	C201.614670,194.755417 201.097443,195.708740 200.580215,196.662064 
	C200.580215,196.662064 200.812592,196.826050 200.421066,196.849442 
	C199.680511,197.601868 199.331497,198.330902 198.982483,199.059937 
	C198.982483,199.059937 198.768814,199.164871 198.513718,199.385559 
	C198.034515,200.085419 197.810425,200.564621 197.586319,201.043808 
	C197.446945,201.225311 197.307571,201.406799 196.885910,202.157120 
	C194.566376,207.696045 192.529114,212.666168 190.491867,217.636276 
	C190.646500,217.729187 190.801132,217.822083 190.510300,218.002930 
	C189.879501,219.065063 189.694168,220.039246 189.508835,221.013428 
z" data-index="2" style="opacity: 1;"></path>
<path fill="#C44A4F" opacity="1.000000" stroke="none" d="
M259.065002,235.972672 
	C258.746429,236.513412 258.152130,237.052917 258.149719,237.595047 
	C258.096680,249.529770 258.109222,261.464783 258.109222,274.126526 
	C260.203308,274.126526 261.957886,274.126343 263.712494,274.126526 
	C278.503113,274.128052 293.293945,274.094269 308.084076,274.180664 
	C309.736359,274.190277 311.384613,274.882324 312.958374,275.689697 
	C297.095184,276.039490 281.308441,275.949982 265.521606,275.878235 
	C256.577271,275.837616 256.122955,275.410919 256.119110,266.722870 
	C256.115448,258.412323 255.988068,250.098358 256.205780,241.793518 
	C256.261749,239.659424 257.413025,237.554031 258.465179,235.486740 
	C258.869232,235.538025 259.065002,235.972672 259.065002,235.972672 
z" data-index="3"></path>
<path fill="#9A2328" opacity="1.000000" stroke="none" d="
M259.526001,236.011063 
	C259.065002,235.972672 258.869232,235.538025 258.771240,235.320023 
	C292.226196,235.055878 325.779175,235.004517 359.332153,234.989838 
	C360.290833,234.989410 361.249725,235.378601 362.511292,235.840759 
	C328.538361,236.080093 294.262665,236.064774 259.526001,236.011063 
z" data-index="4"></path>
<path fill="#BE454A" opacity="1.000000" stroke="none" d="
M187.457703,259.639343 
	C184.746841,248.572769 185.965439,237.229828 188.315582,225.567993 
	C188.346283,228.842056 188.033478,232.453629 187.953918,236.070297 
	C187.783829,243.803848 187.734406,251.540039 187.457703,259.639343 
z" data-index="5"></path>
<path fill="#BE454A" opacity="1.000000" stroke="none" d="
M192.976425,280.668152 
	C191.105804,274.975311 189.259018,268.873383 187.495850,262.394897 
	C189.386383,268.098572 191.193329,274.178833 192.976425,280.668152 
z" data-index="6"></path>
<path fill="#BE454A" opacity="1.000000" stroke="none" d="
M190.806122,217.478577 
	C192.529114,212.666168 194.566376,207.696045 196.844742,202.497910 
	C195.097366,207.286880 193.108871,212.303879 190.806122,217.478577 
z" data-index="7"></path>
<path fill="#BE454A" opacity="1.000000" stroke="none" d="
M196.930527,288.805054 
	C195.600952,286.704132 194.276642,284.226440 192.936920,281.379211 
	C194.259598,283.482513 195.597687,285.955383 196.930527,288.805054 
z" data-index="8"></path>
<path fill="#BE454A" opacity="1.000000" stroke="none" d="
M207.151062,188.815628 
	C208.321671,187.279068 209.823212,185.679306 211.653473,184.017075 
	C210.482132,185.553879 208.982056,187.153152 207.151062,188.815628 
z" data-index="9"></path>
<path fill="#BE454A" opacity="1.000000" stroke="none" d="
M216.303528,180.942474 
	C217.389404,179.958755 218.830841,178.935364 220.613373,177.901794 
	C219.522659,178.895355 218.090866,179.899063 216.303528,180.942474 
z" data-index="10"></path>
<path fill="#BE454A" opacity="1.000000" stroke="none" d="
M189.782135,220.849167 
	C189.694168,220.039246 189.879501,219.065063 190.273926,217.871841 
	C190.340485,218.663498 190.197968,219.674210 189.782135,220.849167 
z" data-index="11"></path>
<path fill="#C44A4F" opacity="1.000000" stroke="none" d="
M312.139557,279.206238 
	C312.219574,280.069366 312.034119,281.125427 311.596619,282.397858 
	C311.521027,281.542542 311.697540,280.470856 312.139557,279.206238 
z" data-index="12"></path>
<path fill="#BE454A" opacity="1.000000" stroke="none" d="
M200.917633,196.552582 
	C201.097443,195.708740 201.614670,194.755417 202.417618,193.639618 
	C202.220581,194.465805 201.737808,195.454468 200.917633,196.552582 
z" data-index="13"></path>
<path fill="#BE454A" opacity="1.000000" stroke="none" d="
M199.284760,198.939865 
	C199.331497,198.330902 199.680511,197.601868 200.319366,196.750061 
	C200.268478,197.358124 199.927765,198.088959 199.284760,198.939865 
z" data-index="14"></path>
<path fill="#BE454A" opacity="1.000000" stroke="none" d="
M205.193970,190.856461 
	C205.351089,190.292999 205.816345,189.648087 206.577942,188.910614 
	C206.416870,189.470398 205.959488,190.122696 205.193970,190.856461 
z" data-index="15"></path>
<path fill="#BE454A" opacity="1.000000" stroke="none" d="
M203.355286,192.922653 
	C203.495728,192.370926 203.930710,191.732651 204.647156,190.989166 
	C204.502365,191.534683 204.076096,192.185394 203.355286,192.922653 
z" data-index="16"></path>
<path fill="#BE454A" opacity="1.000000" stroke="none" d="
M188.842499,224.871552 
	C188.692902,224.526215 188.765320,224.060455 189.011536,223.282349 
	C189.145050,223.563690 189.104767,224.157410 188.842499,224.871552 
z" data-index="17"></path>
<path fill="#BE454A" opacity="1.000000" stroke="none" d="
M213.840942,182.578888 
	C213.932114,182.289093 214.256454,181.989532 214.810287,181.670410 
	C214.717880,181.956940 214.395981,182.263046 213.840942,182.578888 
z" data-index="18"></path>
<path fill="#BE454A" opacity="1.000000" stroke="none" d="
M197.827026,200.925797 
	C197.810425,200.564621 198.034515,200.085419 198.511902,199.504578 
	C198.532700,199.871201 198.300232,200.339493 197.827026,200.925797 
z" data-index="19"></path>
<path fill="#BE454A" opacity="1.000000" stroke="none" d="
M212.241425,183.928986 
	C212.328430,183.567337 212.710907,183.160690 213.360703,182.661957 
	C213.264313,183.007904 212.900589,183.445953 212.241425,183.928986 
z" data-index="20"></path>
</svg>